<svg width="215" height="64" viewBox="0 0 215 64" fill="none" xmlns="http://www.w3.org/2000/svg">
<path d="M57.4 47.34C56.14 46.58 55.0499 45.61 54.1399 44.45H9.74995C7.99995 44.45 6.56995 43.02 6.56995 41.27V25.39C6.56995 23.64 7.99995 22.21 9.74995 22.21C11.5 22.21 12.93 23.64 12.93 25.39V38.09H51.2799C50.9899 36.72 50.8299 35.24 50.82 33.68V32.48C50.82 32.23 50.82 31.98 50.83 31.74H19.27V25.39C19.27 22.6 18.03 20.09 16.09 18.34V9.51001C16.09 7.76001 17.52 6.33001 19.27 6.33001H51.0199C52.7699 6.33001 54.1999 7.76001 54.1999 9.51001V18.34C52.2599 20.09 51.0199 22.59 51.0199 25.39V29.39C51.2899 27.49 51.81 25.75 52.58 24.16C53.76 21.75 55.4199 19.89 57.5599 18.59C59.5799 17.37 61.8299 16.72 64.3199 16.65C63.1599 16.14 61.88 15.86 60.54 15.86V9.51001C60.54 4.27001 56.25 -0.019989 51.01 -0.019989H19.2599C14.0199 -0.019989 9.72995 4.27001 9.72995 9.51001V15.86C4.48995 15.86 0.199951 20.15 0.199951 25.39V41.27C0.199951 46.51 4.48995 50.8 9.72995 50.8V53.98C9.72995 55.73 11.16 57.16 12.91 57.16C14.66 57.16 16.09 55.73 16.09 53.98V50.8H54.19V53.98C54.19 55.73 55.62 57.16 57.37 57.16C59.12 57.16 60.55 55.73 60.55 53.98V50.8C62.48 50.8 64.2899 50.22 65.7899 49.22C65.4399 49.24 65.09 49.24 64.7299 49.24C61.93 49.24 59.4799 48.61 57.3899 47.34H57.4Z" fill="black"/>
<path d="M51.0298 29.4C50.9198 30.16 50.8598 30.94 50.8298 31.75H51.0298V29.4Z" fill="black"/>
<path d="M70.0901 39.54V41.28C70.0901 44.59 68.3801 47.51 65.8101 49.22C69.2601 49.06 72.0201 48.12 74.0901 46.38C76.3701 44.47 77.6601 41.7 77.9801 38.06H70.3901C70.3201 38.59 70.2301 39.08 70.1001 39.53L70.0901 39.54Z" fill="black"/>
<path d="M70.0899 25.4V26.29C70.2299 26.81 70.3399 27.4 70.4299 28.05H78.0699C77.7399 24.4 76.4299 21.58 74.1699 19.61C71.8999 17.64 68.7799 16.65 64.8099 16.65C64.6599 16.65 64.5099 16.65 64.3599 16.65C67.7299 18.12 70.0999 21.49 70.0999 25.39L70.0899 25.4Z" fill="black"/>
<path d="M71.2593 39.638H78.5591C78.4126 42.0306 77.7534 44.1546 76.5815 46.0101C75.4259 47.8656 73.8065 49.3141 71.7231 50.3558C69.6561 51.3975 67.1659 51.9183 64.2524 51.9183C61.9738 51.9183 59.9312 51.5277 58.1245 50.7464C56.3179 49.9489 54.7716 48.8096 53.4858 47.3285C52.2163 45.8473 51.2479 44.057 50.5806 41.9574C49.9132 39.8578 49.5796 37.5059 49.5796 34.9017V32.4359C49.5796 29.8317 49.9214 27.4798 50.605 25.3802C51.3049 23.2643 52.2977 21.4658 53.5835 19.9847C54.8856 18.5036 56.4399 17.3643 58.2466 16.5667C60.0532 15.7692 62.0715 15.3705 64.3013 15.3705C67.2635 15.3705 69.7619 15.9076 71.7964 16.9818C73.8472 18.056 75.4341 19.5371 76.5571 21.4251C77.6965 23.3132 78.38 25.4616 78.6079 27.8705H71.2837C71.2023 26.4382 70.9175 25.2256 70.4292 24.2328C69.9409 23.2236 69.2004 22.4668 68.2075 21.9622C67.231 21.4414 65.9289 21.181 64.3013 21.181C63.0806 21.181 62.0145 21.4089 61.103 21.8646C60.1916 22.3203 59.4266 23.0121 58.8081 23.9398C58.1896 24.8675 57.7257 26.0394 57.4165 27.4554C57.1235 28.8552 56.9771 30.499 56.9771 32.3871V34.9017C56.9771 36.7409 57.1154 38.3604 57.3921 39.7601C57.6688 41.1436 58.092 42.3154 58.6616 43.2757C59.2476 44.2197 59.9963 44.9359 60.9077 45.4242C61.8354 45.8962 62.9504 46.1322 64.2524 46.1322C65.7824 46.1322 67.0438 45.888 68.0366 45.3997C69.0295 44.9115 69.7863 44.1872 70.3071 43.2269C70.8442 42.2666 71.1616 41.0703 71.2593 39.638Z" fill="black"/>
<path d="M110.353 32.7865V34.4711C110.353 37.1729 109.987 39.598 109.254 41.7465C108.522 43.8949 107.488 45.726 106.154 47.2396C104.819 48.737 103.224 49.8845 101.369 50.682C99.5295 51.4795 97.4868 51.8783 95.2407 51.8783C93.0109 51.8783 90.9683 51.4795 89.1128 50.682C87.2736 49.8845 85.6785 48.737 84.3276 47.2396C82.9767 45.726 81.9269 43.8949 81.1782 41.7465C80.4458 39.598 80.0796 37.1729 80.0796 34.4711V32.7865C80.0796 30.0684 80.4458 27.6433 81.1782 25.5111C81.9106 23.3627 82.9442 21.5316 84.2788 20.0179C85.6297 18.5043 87.2248 17.3487 89.064 16.5511C90.9194 15.7536 92.9621 15.3549 95.1919 15.3549C97.438 15.3549 99.4806 15.7536 101.32 16.5511C103.175 17.3487 104.77 18.5043 106.105 20.0179C107.456 21.5316 108.498 23.3627 109.23 25.5111C109.979 27.6433 110.353 30.0684 110.353 32.7865ZM102.956 34.4711V32.7377C102.956 30.8497 102.785 29.1895 102.443 27.7572C102.101 26.3249 101.597 25.1205 100.929 24.1439C100.262 23.1674 99.4481 22.4349 98.4878 21.9467C97.5275 21.4421 96.4289 21.1898 95.1919 21.1898C93.9549 21.1898 92.8563 21.4421 91.896 21.9467C90.952 22.4349 90.1463 23.1674 89.479 24.1439C88.828 25.1205 88.3315 26.3249 87.9897 27.7572C87.6479 29.1895 87.4771 30.8497 87.4771 32.7377V34.4711C87.4771 36.3428 87.6479 38.003 87.9897 39.4515C88.3315 40.8838 88.8361 42.0964 89.5034 43.0892C90.1707 44.0658 90.9845 44.8064 91.9448 45.3109C92.9051 45.8155 94.0037 46.0677 95.2407 46.0677C96.4777 46.0677 97.5763 45.8155 98.5366 45.3109C99.4969 44.8064 100.303 44.0658 100.954 43.0892C101.605 42.0964 102.101 40.8838 102.443 39.4515C102.785 38.003 102.956 36.3428 102.956 34.4711ZM118.971 15.8431H125.172L134.303 41.9418L143.434 15.8431H149.635L136.793 51.39H131.813L118.971 15.8431ZM115.626 15.8431H121.803L122.926 41.2826V51.39H115.626V15.8431ZM146.803 15.8431H153.004V51.39H145.68V41.2826L146.803 15.8431ZM166.75 15.8431V51.39H159.425V15.8431H166.75ZM180.91 31.0287V36.7416H164.748V31.0287H180.91ZM182.619 15.8431V21.5804H164.748V15.8431H182.619ZM191.75 15.8431L199.171 32.0541L206.593 15.8431H214.577L202.882 38.4506V51.39H195.46V38.4506L183.742 15.8431H191.75Z" fill="black"/>
</svg>
